# xmcd
#
# Track frame offsets: 
#        150
#        18492
#        31385
#        42535
#        74866
#        92405
#        99474
#        111545
#        129240
#        142429
#        162803
#        179751
#
# Disc length: 2726 seconds
#
# Revision: 1
# Processed by: cddbd v1.5.2PL0 Copyright (c) Steve Scherf et al.
# Submitted via: ExactAudioCopyFreeDBPlugin 1.0
#
DISCID=b50aa40c
DTITLE=Various Artist - Meet Me At Mardi Gras
DYEAR=2012
DGENRE=Blues
TTITLE0=The Soul Rebels - Say Na Hey
TTITLE1=Joe Liggins and The Honeydrippers - Goin' Back To New Orleans
TTITLE2=Zachary Richard - Mardi Gras Mambo
TTITLE3=New Orleans Nightcrawlers - Funky Liza
TTITLE4=Steve Riley and The Mamou Playboys - La Danse De Mardi Gras
TTITLE5=Larry Williams - Jockamo A.K.A Iko-Iko
TTITLE6=Al Johnson - Carnival Time
TTITLE7=Marcia Ball - Big Shot
TTITLE8=Professor Longhair - Go To The Mardi Gras
TTITLE9=ReBirth Brass Band - Do Watcha Wanna, Part 3
TTITLE10=Bo Dollis and The Wild Magnolias - Tipitina
TTITLE11=Chuck Carbo - Meet Me With Your Black Drawers On
EXTD=
EXTT0=
EXTT1=
EXTT2=
EXTT3=
EXTT4=
EXTT5=
EXTT6=
EXTT7=
EXTT8=
EXTT9=
EXTT10=
EXTT11=
PLAYORDER=
